<svg width="279" height="185" viewBox="0 0 279 185" fill="none" xmlns="http://www.w3.org/2000/svg">
<path d="M246.032 51.7342L239.047 67.395H236.8L243.762 52.2902H234.634V50.5295H246.032V51.7342ZM256.677 59.9816C256.229 60.5145 255.692 60.9431 255.067 61.2674C254.449 61.5917 253.77 61.7539 253.028 61.7539C252.055 61.7539 251.206 61.5145 250.48 61.0357C249.762 60.5569 249.206 59.8851 248.812 59.0202C248.418 58.1476 248.221 57.1862 248.221 56.1359C248.221 55.0085 248.434 53.993 248.858 53.0895C249.291 52.186 249.901 51.4948 250.688 51.0161C251.476 50.5373 252.395 50.2979 253.445 50.2979C255.113 50.2979 256.426 50.9234 257.384 52.1744C258.349 53.4177 258.832 55.1166 258.832 57.2711V57.8966C258.832 61.1786 258.183 63.5763 256.886 65.0899C255.588 66.5958 253.631 67.368 251.013 67.4066H250.596V65.5996H251.048C252.816 65.5687 254.175 65.1092 255.125 64.2212C256.075 63.3254 256.592 61.9122 256.677 59.9816ZM253.376 59.9816C254.094 59.9816 254.754 59.7615 255.357 59.3214C255.967 58.8812 256.411 58.3368 256.689 57.6881V56.8309C256.689 55.4255 256.384 54.2826 255.774 53.4022C255.164 52.5219 254.391 52.0817 253.457 52.0817C252.515 52.0817 251.758 52.4447 251.187 53.1706C250.615 53.8887 250.329 54.8386 250.329 56.0201C250.329 57.1707 250.603 58.1206 251.152 58.8696C251.708 59.611 252.449 59.9816 253.376 59.9816ZM261.6 53.7729C261.6 52.7613 261.921 51.9273 262.561 51.2709C263.21 50.6145 264.04 50.2863 265.052 50.2863C266.079 50.2863 266.909 50.6184 267.542 51.2825C268.183 51.9389 268.504 52.7922 268.504 53.8424V54.6648C268.504 55.6842 268.179 56.5182 267.531 57.1669C266.89 57.8078 266.071 58.1283 265.075 58.1283C264.071 58.1283 263.241 57.8078 262.585 57.1669C261.928 56.5182 261.6 55.6571 261.6 54.5837V53.7729ZM263.199 54.6648C263.199 55.2672 263.368 55.7653 263.708 56.1591C264.048 56.5452 264.504 56.7383 265.075 56.7383C265.623 56.7383 266.064 56.5491 266.396 56.1707C266.735 55.7923 266.905 55.2749 266.905 54.6185V53.7729C266.905 53.1706 266.739 52.6725 266.407 52.2786C266.075 51.8848 265.623 51.6879 265.052 51.6879C264.48 51.6879 264.029 51.8848 263.697 52.2786C263.365 52.6725 263.199 53.186 263.199 53.8192V54.6648ZM269.813 63.2597C269.813 62.2481 270.133 61.418 270.774 60.7693C271.423 60.1129 272.253 59.7847 273.265 59.7847C274.276 59.7847 275.106 60.109 275.755 60.7577C276.404 61.4064 276.728 62.2674 276.728 63.3408V64.1632C276.728 65.1749 276.404 66.0089 275.755 66.6653C275.114 67.3139 274.292 67.6383 273.288 67.6383C272.284 67.6383 271.454 67.3178 270.797 66.6768C270.141 66.0282 269.813 65.1671 269.813 64.0937V63.2597ZM271.411 64.1632C271.411 64.7733 271.581 65.2753 271.921 65.6691C272.261 66.0552 272.716 66.2483 273.288 66.2483C273.844 66.2483 274.288 66.0591 274.62 65.6807C274.952 65.2946 275.118 64.7733 275.118 64.1169V63.2597C275.118 62.6497 274.948 62.1516 274.608 61.7655C274.276 61.3794 273.828 61.1863 273.265 61.1863C272.716 61.1863 272.268 61.3794 271.921 61.7655C271.581 62.1439 271.411 62.6574 271.411 63.3061V64.1632ZM265.562 66.1208L264.345 65.3563L272.581 52.1744L273.797 52.9389L265.562 66.1208Z" fill="#0088F0"/>
<path d="M236.905 82.7596C236.905 82.1991 237.014 81.6949 237.233 81.2472C237.455 80.7995 237.761 80.454 238.153 80.2107C238.548 79.9675 238.997 79.8459 239.501 79.8459C240.28 79.8459 240.91 80.1156 241.389 80.6549C241.872 81.1943 242.114 81.9117 242.114 82.8072V82.8759C242.114 83.433 242.006 83.9336 241.791 84.3778C241.579 84.8184 241.275 85.1622 240.876 85.4089C240.481 85.6557 240.027 85.7791 239.512 85.7791C238.736 85.7791 238.107 85.5094 237.624 84.97C237.145 84.4306 236.905 83.7167 236.905 82.8283V82.7596ZM237.888 82.8759C237.888 83.5105 238.035 84.0199 238.327 84.4042C238.623 84.7885 239.018 84.9806 239.512 84.9806C240.009 84.9806 240.404 84.7867 240.696 84.3989C240.989 84.0076 241.135 83.4612 241.135 82.7596C241.135 82.1321 240.985 81.6244 240.686 81.2366C240.39 80.8453 239.995 80.6497 239.501 80.6497C239.018 80.6497 238.629 80.8418 238.333 81.2261C238.036 81.6103 237.888 82.1603 237.888 82.8759ZM248.174 82.8759C248.174 83.7467 247.975 84.4483 247.576 84.9806C247.178 85.5129 246.638 85.7791 245.958 85.7791C245.264 85.7791 244.717 85.5588 244.319 85.1181V87.8732H243.34V79.9516H244.234L244.282 80.5862C244.68 80.0926 245.234 79.8459 245.942 79.8459C246.63 79.8459 247.173 80.105 247.571 80.6232C247.973 81.1414 248.174 81.8624 248.174 82.786V82.8759ZM247.195 82.7649C247.195 82.1197 247.058 81.6103 246.783 81.2366C246.508 80.8629 246.131 80.6761 245.651 80.6761C245.059 80.6761 244.615 80.9387 244.319 81.464V84.198C244.611 84.7197 245.059 84.9806 245.662 84.9806C246.131 84.9806 246.503 84.7955 246.778 84.4254C247.056 84.0517 247.195 83.4982 247.195 82.7649ZM250.749 78.5662V79.9516H251.817V80.7078H250.749V84.2561C250.749 84.4853 250.797 84.658 250.892 84.7744C250.987 84.8872 251.149 84.9436 251.378 84.9436C251.491 84.9436 251.646 84.9224 251.844 84.8801V85.6733C251.586 85.7438 251.336 85.7791 251.093 85.7791C250.656 85.7791 250.326 85.6469 250.104 85.3825C249.882 85.1181 249.771 84.7426 249.771 84.2561V80.7078H248.729V79.9516H249.771V78.5662H250.749ZM254.028 85.6733H253.049V79.9516H254.028V85.6733ZM252.97 78.4339C252.97 78.2753 253.018 78.1413 253.113 78.0321C253.212 77.9228 253.356 77.8681 253.546 77.8681C253.737 77.8681 253.881 77.9228 253.98 78.0321C254.079 78.1413 254.128 78.2753 254.128 78.4339C254.128 78.5926 254.079 78.7248 253.98 78.8306C253.881 78.9363 253.737 78.9892 253.546 78.9892C253.356 78.9892 253.212 78.9363 253.113 78.8306C253.018 78.7248 252.97 78.5926 252.97 78.4339ZM255.339 82.7596C255.339 82.1991 255.448 81.6949 255.667 81.2472C255.889 80.7995 256.196 80.454 256.587 80.2107C256.982 79.9675 257.431 79.8459 257.936 79.8459C258.715 79.8459 259.344 80.1156 259.823 80.6549C260.306 81.1943 260.548 81.9117 260.548 82.8072V82.8759C260.548 83.433 260.44 83.9336 260.225 84.3778C260.014 84.8184 259.709 85.1622 259.31 85.4089C258.916 85.6557 258.461 85.7791 257.946 85.7791C257.171 85.7791 256.541 85.5094 256.058 84.97C255.579 84.4306 255.339 83.7167 255.339 82.8283V82.7596ZM256.323 82.8759C256.323 83.5105 256.469 84.0199 256.762 84.4042C257.058 84.7885 257.453 84.9806 257.946 84.9806C258.443 84.9806 258.838 84.7867 259.131 84.3989C259.423 84.0076 259.57 83.4612 259.57 82.7596C259.57 82.1321 259.42 81.6244 259.12 81.2366C258.824 80.8453 258.429 80.6497 257.936 80.6497C257.453 80.6497 257.063 80.8418 256.767 81.2261C256.471 81.6103 256.323 82.1603 256.323 82.8759ZM262.7 79.9516L262.732 80.6708C263.169 80.1208 263.74 79.8459 264.445 79.8459C265.654 79.8459 266.264 80.528 266.275 81.8924V85.6733H265.297V81.8871C265.293 81.4746 265.198 81.1697 265.011 80.9722C264.828 80.7748 264.54 80.6761 264.149 80.6761C263.832 80.6761 263.553 80.7607 263.314 80.9299C263.074 81.0991 262.887 81.3212 262.753 81.5962V85.6733H261.775V79.9516H262.7ZM273.551 85.6733H272.568V79.1531L270.595 79.8776V78.9892L273.398 77.9369H273.551V85.6733Z" fill="#8794BA"/>
<path d="M245.372 122.318C245.372 123.16 245.148 123.909 244.7 124.565C244.26 125.221 243.661 125.735 242.904 126.106C243.785 126.484 244.48 127.036 244.989 127.762C245.507 128.488 245.765 129.31 245.765 130.229C245.765 131.689 245.271 132.851 244.283 133.716C243.302 134.581 242.009 135.013 240.402 135.013C238.781 135.013 237.479 134.581 236.499 133.716C235.526 132.843 235.039 131.681 235.039 130.229C235.039 129.318 235.286 128.496 235.781 127.762C236.283 127.029 236.974 126.472 237.854 126.094C237.105 125.723 236.514 125.21 236.082 124.554C235.649 123.897 235.433 123.152 235.433 122.318C235.433 120.897 235.889 119.77 236.8 118.936C237.711 118.102 238.912 117.685 240.402 117.685C241.885 117.685 243.082 118.102 243.993 118.936C244.912 119.77 245.372 120.897 245.372 122.318ZM243.623 130.183C243.623 129.241 243.321 128.473 242.719 127.878C242.124 127.283 241.344 126.986 240.379 126.986C239.414 126.986 238.638 127.279 238.051 127.866C237.472 128.453 237.182 129.225 237.182 130.183C237.182 131.141 237.464 131.894 238.028 132.442C238.599 132.99 239.391 133.264 240.402 133.264C241.406 133.264 242.194 132.99 242.765 132.442C243.337 131.886 243.623 131.133 243.623 130.183ZM240.402 119.445C239.561 119.445 238.877 119.708 238.352 120.233C237.835 120.75 237.576 121.457 237.576 122.353C237.576 123.21 237.831 123.905 238.341 124.438C238.858 124.963 239.545 125.225 240.402 125.225C241.26 125.225 241.943 124.963 242.453 124.438C242.97 123.905 243.229 123.21 243.229 122.353C243.229 121.495 242.962 120.797 242.429 120.256C241.897 119.715 241.221 119.445 240.402 119.445ZM259.353 119.121L252.368 134.782H250.121L257.082 119.677H247.955V117.916H259.353V119.121ZM261.6 121.16C261.6 120.148 261.921 119.314 262.561 118.658C263.21 118.001 264.04 117.673 265.052 117.673C266.079 117.673 266.909 118.005 267.542 118.669C268.183 119.326 268.504 120.179 268.504 121.229V122.051C268.504 123.071 268.179 123.905 267.531 124.554C266.89 125.194 266.071 125.515 265.075 125.515C264.071 125.515 263.241 125.194 262.585 124.554C261.928 123.905 261.6 123.044 261.6 121.97V121.16ZM263.199 122.051C263.199 122.654 263.368 123.152 263.708 123.546C264.048 123.932 264.504 124.125 265.075 124.125C265.623 124.125 266.064 123.936 266.396 123.557C266.735 123.179 266.905 122.662 266.905 122.005V121.16C266.905 120.557 266.739 120.059 266.407 119.665C266.075 119.271 265.623 119.075 265.052 119.075C264.48 119.075 264.029 119.271 263.697 119.665C263.365 120.059 263.199 120.573 263.199 121.206V122.051ZM269.813 130.646C269.813 129.635 270.133 128.805 270.774 128.156C271.423 127.5 272.253 127.171 273.265 127.171C274.276 127.171 275.106 127.496 275.755 128.144C276.404 128.793 276.728 129.654 276.728 130.727V131.55C276.728 132.562 276.404 133.396 275.755 134.052C275.114 134.701 274.292 135.025 273.288 135.025C272.284 135.025 271.454 134.704 270.797 134.064C270.141 133.415 269.813 132.554 269.813 131.48V130.646ZM271.411 131.55C271.411 132.16 271.581 132.662 271.921 133.056C272.261 133.442 272.716 133.635 273.288 133.635C273.844 133.635 274.288 133.446 274.62 133.067C274.952 132.681 275.118 132.16 275.118 131.504V130.646C275.118 130.036 274.948 129.538 274.608 129.152C274.276 128.766 273.828 128.573 273.265 128.573C272.716 128.573 272.268 128.766 271.921 129.152C271.581 129.531 271.411 130.044 271.411 130.693V131.55ZM265.562 133.508L264.345 132.743L272.581 119.561L273.797 120.326L265.562 133.508Z" fill="#EF2A82"/>
<path d="M236.905 150.146C236.905 149.586 237.014 149.082 237.233 148.634C237.455 148.186 237.761 147.841 238.153 147.597C238.548 147.354 238.997 147.233 239.501 147.233C240.28 147.233 240.91 147.502 241.389 148.042C241.872 148.581 242.114 149.298 242.114 150.194V150.263C242.114 150.82 242.006 151.32 241.791 151.764C241.579 152.205 241.275 152.549 240.876 152.796C240.481 153.042 240.027 153.166 239.512 153.166C238.736 153.166 238.107 152.896 237.624 152.357C237.145 151.817 236.905 151.103 236.905 150.215V150.146ZM237.888 150.263C237.888 150.897 238.035 151.407 238.327 151.791C238.623 152.175 239.018 152.367 239.512 152.367C240.009 152.367 240.404 152.173 240.696 151.786C240.989 151.394 241.135 150.848 241.135 150.146C241.135 149.519 240.985 149.011 240.686 148.623C240.39 148.232 239.995 148.036 239.501 148.036C239.018 148.036 238.629 148.228 238.333 148.613C238.036 148.997 237.888 149.547 237.888 150.263ZM248.174 150.263C248.174 151.133 247.975 151.835 247.576 152.367C247.178 152.9 246.638 153.166 245.958 153.166C245.264 153.166 244.717 152.945 244.319 152.505V155.26H243.34V147.338H244.234L244.282 147.973C244.68 147.479 245.234 147.233 245.942 147.233C246.63 147.233 247.173 147.492 247.571 148.01C247.973 148.528 248.174 149.249 248.174 150.173V150.263ZM247.195 150.152C247.195 149.506 247.058 148.997 246.783 148.623C246.508 148.25 246.131 148.063 245.651 148.063C245.059 148.063 244.615 148.325 244.319 148.851V151.585C244.611 152.106 245.059 152.367 245.662 152.367C246.131 152.367 246.503 152.182 246.778 151.812C247.056 151.438 247.195 150.885 247.195 150.152ZM250.749 145.953V147.338H251.817V148.094H250.749V151.643C250.749 151.872 250.797 152.045 250.892 152.161C250.987 152.274 251.149 152.33 251.378 152.33C251.491 152.33 251.646 152.309 251.844 152.267V153.06C251.586 153.131 251.336 153.166 251.093 153.166C250.656 153.166 250.326 153.034 250.104 152.769C249.882 152.505 249.771 152.129 249.771 151.643V148.094H248.729V147.338H249.771V145.953H250.749ZM254.028 153.06H253.049V147.338H254.028V153.06ZM252.97 145.821C252.97 145.662 253.018 145.528 253.113 145.419C253.212 145.309 253.356 145.255 253.546 145.255C253.737 145.255 253.881 145.309 253.98 145.419C254.079 145.528 254.128 145.662 254.128 145.821C254.128 145.979 254.079 146.111 253.98 146.217C253.881 146.323 253.737 146.376 253.546 146.376C253.356 146.376 253.212 146.323 253.113 146.217C253.018 146.111 252.97 145.979 252.97 145.821ZM255.339 150.146C255.339 149.586 255.448 149.082 255.667 148.634C255.889 148.186 256.196 147.841 256.587 147.597C256.982 147.354 257.431 147.233 257.936 147.233C258.715 147.233 259.344 147.502 259.823 148.042C260.306 148.581 260.548 149.298 260.548 150.194V150.263C260.548 150.82 260.44 151.32 260.225 151.764C260.014 152.205 259.709 152.549 259.31 152.796C258.916 153.042 258.461 153.166 257.946 153.166C257.171 153.166 256.541 152.896 256.058 152.357C255.579 151.817 255.339 151.103 255.339 150.215V150.146ZM256.323 150.263C256.323 150.897 256.469 151.407 256.762 151.791C257.058 152.175 257.453 152.367 257.946 152.367C258.443 152.367 258.838 152.173 259.131 151.786C259.423 151.394 259.57 150.848 259.57 150.146C259.57 149.519 259.42 149.011 259.12 148.623C258.824 148.232 258.429 148.036 257.936 148.036C257.453 148.036 257.063 148.228 256.767 148.613C256.471 148.997 256.323 149.547 256.323 150.263ZM262.7 147.338L262.732 148.057C263.169 147.508 263.74 147.233 264.445 147.233C265.654 147.233 266.264 147.915 266.275 149.279V153.06H265.297V149.274C265.293 148.861 265.198 148.556 265.011 148.359C264.828 148.161 264.54 148.063 264.149 148.063C263.832 148.063 263.553 148.147 263.314 148.317C263.074 148.486 262.887 148.708 262.753 148.983V153.06H261.775V147.338H262.7ZM275.381 153.06H270.336V152.357L273.001 149.395C273.396 148.948 273.668 148.585 273.816 148.306C273.967 148.024 274.043 147.733 274.043 147.433C274.043 147.032 273.921 146.702 273.678 146.445C273.435 146.187 273.111 146.059 272.705 146.059C272.219 146.059 271.84 146.198 271.568 146.476C271.3 146.751 271.166 147.136 271.166 147.629H270.188C270.188 146.921 270.415 146.348 270.87 145.911C271.328 145.473 271.94 145.255 272.705 145.255C273.421 145.255 273.987 145.443 274.403 145.821C274.819 146.194 275.027 146.693 275.027 147.317C275.027 148.075 274.544 148.978 273.578 150.025L271.515 152.261H275.381V153.06Z" fill="#8794BA"/>
<path d="M105.093 51.537C105.041 50.1603 106.116 48.9965 107.493 49.0065C119.491 49.0931 131.166 53.0571 140.756 60.3418C151.009 68.1305 158.244 79.2333 161.229 91.7585C164.213 104.284 162.763 117.456 157.124 129.032C151.485 140.607 142.007 149.87 130.305 155.24C118.603 160.611 105.4 161.758 92.9471 158.486C80.494 155.214 69.5606 147.725 62.0099 137.296C54.4593 126.866 50.7586 114.141 51.5383 101.289C52.2676 89.2682 56.8741 77.8319 64.6313 68.6784C65.5219 67.6274 67.1049 67.5716 68.1149 68.5084C69.1249 69.4452 69.179 71.0197 68.293 72.0746C61.3183 80.3788 57.1772 90.7226 56.5179 101.591C55.808 113.291 59.177 124.876 66.0509 134.37C72.9247 143.865 82.878 150.683 94.2149 153.661C105.552 156.64 117.571 155.596 128.224 150.706C138.877 145.817 147.506 137.385 152.639 126.847C157.772 116.309 159.093 104.317 156.376 92.9149C153.659 81.5124 147.072 71.4048 137.738 64.3143C129.067 57.7279 118.525 54.1234 107.681 53.9972C106.303 53.9812 105.145 52.9136 105.093 51.537Z" fill="#EF2A82"/>
<path d="M104.107 27.9947C104.03 26.008 105.579 24.3263 107.567 24.338C123.14 24.4301 138.381 29.0497 151.413 37.6719C165.447 46.9575 176.21 60.4163 182.183 76.1485C188.156 91.8806 189.037 109.091 184.702 125.351C180.367 141.611 171.035 156.099 158.022 166.769C145.01 177.44 128.975 183.754 112.181 184.82C95.3869 185.887 78.682 181.652 64.4245 172.713C50.167 163.774 39.077 150.583 32.72 135.002C26.8172 120.534 25.2722 104.684 28.2322 89.3938C28.6101 87.4418 30.5625 86.2526 32.4956 86.7175C34.4287 87.1825 35.6096 89.1255 35.2403 91.0791C32.6278 104.901 34.0535 119.211 39.3865 132.282C45.1736 146.467 55.2695 158.475 68.249 166.613C81.2285 174.75 96.436 178.606 111.725 177.635C127.013 176.664 141.611 170.916 153.457 161.202C165.303 151.488 173.799 138.299 177.745 123.497C181.692 108.694 180.89 93.0261 175.452 78.7041C170.014 64.3822 160.216 52.1298 147.44 43.6765C135.666 35.8867 121.912 31.6857 107.847 31.5405C105.859 31.52 104.185 29.9814 104.107 27.9947Z" fill="#0088F0"/>
<path d="M98.7105 103.37L98.9714 100.81H101.601V101.413H99.5249L99.3698 102.813C99.6212 102.665 99.9068 102.591 100.226 102.591C100.694 102.591 101.065 102.746 101.34 103.056C101.615 103.364 101.753 103.781 101.753 104.308C101.753 104.836 101.61 105.254 101.323 105.559C101.038 105.862 100.64 106.014 100.128 106.014C99.6741 106.014 99.304 105.888 99.0172 105.637C98.7305 105.385 98.5671 105.037 98.5272 104.593H99.1441C99.1841 104.887 99.2887 105.109 99.4579 105.259C99.6271 105.407 99.8504 105.482 100.128 105.482C100.431 105.482 100.668 105.378 100.84 105.171C101.014 104.964 101.101 104.679 101.101 104.315C101.101 103.971 101.007 103.697 100.819 103.49C100.633 103.281 100.385 103.176 100.075 103.176C99.7905 103.176 99.5672 103.238 99.405 103.363L99.2323 103.504L98.7105 103.37ZM102.765 103.37L103.026 100.81H105.656V101.413H103.579L103.424 102.813C103.675 102.665 103.961 102.591 104.281 102.591C104.748 102.591 105.12 102.746 105.395 103.056C105.67 103.364 105.807 103.781 105.807 104.308C105.807 104.836 105.664 105.254 105.377 105.559C105.093 105.862 104.694 106.014 104.182 106.014C103.728 106.014 103.358 105.888 103.071 105.637C102.785 105.385 102.621 105.037 102.581 104.593H103.198C103.238 104.887 103.343 105.109 103.512 105.259C103.681 105.407 103.905 105.482 104.182 105.482C104.485 105.482 104.722 105.378 104.894 105.171C105.068 104.964 105.155 104.679 105.155 104.315C105.155 103.971 105.061 103.697 104.873 103.49C104.687 103.281 104.439 103.176 104.129 103.176C103.845 103.176 103.621 103.238 103.459 103.363L103.286 103.504L102.765 103.37ZM107.944 104.029H106.223V103.497H107.944V104.029ZM111.074 100.807V101.36H110.954C110.447 101.37 110.042 101.52 109.741 101.812C109.441 102.103 109.267 102.513 109.22 103.042C109.49 102.732 109.859 102.577 110.327 102.577C110.773 102.577 111.129 102.734 111.395 103.049C111.663 103.364 111.797 103.771 111.797 104.269C111.797 104.798 111.652 105.221 111.363 105.538C111.076 105.855 110.691 106.014 110.207 106.014C109.716 106.014 109.317 105.826 109.012 105.45C108.706 105.071 108.553 104.585 108.553 103.99V103.74C108.553 102.795 108.754 102.074 109.156 101.575C109.56 101.075 110.161 100.819 110.958 100.807H111.074ZM110.217 103.12C109.994 103.12 109.788 103.187 109.6 103.32C109.412 103.454 109.282 103.622 109.209 103.825V104.064C109.209 104.487 109.304 104.828 109.495 105.087C109.685 105.345 109.922 105.474 110.207 105.474C110.501 105.474 110.731 105.366 110.898 105.15C111.067 104.934 111.152 104.651 111.152 104.301C111.152 103.948 111.066 103.664 110.894 103.447C110.725 103.229 110.499 103.12 110.217 103.12ZM115.322 104.219H116.034V104.752H115.322V105.943H114.666V104.752H112.329V104.368L114.628 100.81H115.322V104.219ZM113.069 104.219H114.666V101.702L114.589 101.843L113.069 104.219Z" fill="#8794BA"/>
<path d="M5.12229 9.08545H2.25497L1.611 10.8716H0.680295L3.29378 4.02768H4.08347L6.70166 10.8716H5.77566L5.12229 9.08545ZM2.5276 8.34276H4.85436L3.68863 5.14171L2.5276 8.34276ZM7.27983 8.28636C7.27983 7.49354 7.46315 6.86367 7.82979 6.39675C8.19643 5.92669 8.68215 5.69167 9.28695 5.69167C9.90742 5.69167 10.3916 5.91103 10.7394 6.34974L10.7817 5.78568H11.5761V10.7494C11.5761 11.4075 11.3802 11.9261 10.9885 12.3053C10.6 12.6845 10.0766 12.8741 9.41856 12.8741C9.05192 12.8741 8.69312 12.7957 8.34214 12.639C7.99117 12.4824 7.72324 12.2677 7.53836 11.9951L7.98961 11.4733C8.36251 11.934 8.81846 12.1643 9.35746 12.1643C9.7805 12.1643 10.1095 12.0452 10.3446 11.807C10.5827 11.5689 10.7018 11.2336 10.7018 10.8011V10.364C10.354 10.7651 9.87921 10.9657 9.27755 10.9657C8.68215 10.9657 8.19956 10.7259 7.82979 10.2465C7.46315 9.76702 7.27983 9.11365 7.27983 8.28636ZM8.15412 8.38507C8.15412 8.95853 8.27164 9.40978 8.50666 9.73882C8.74169 10.0647 9.07073 10.2277 9.49377 10.2277C10.0422 10.2277 10.4448 9.97854 10.7018 9.48029V7.15823C10.4354 6.67251 10.0359 6.42965 9.50317 6.42965C9.08013 6.42965 8.74952 6.59417 8.51136 6.92321C8.2732 7.25224 8.15412 7.73953 8.15412 8.38507ZM15.0028 10.9657C14.3134 10.9657 13.7524 10.74 13.32 10.2888C12.8875 9.83439 12.6713 9.22803 12.6713 8.46968V8.30986C12.6713 7.80534 12.7669 7.35565 12.9581 6.96081C13.1523 6.56283 13.4218 6.2526 13.7665 6.03011C14.1144 5.80448 14.4904 5.69167 14.8947 5.69167C15.5559 5.69167 16.0698 5.90946 16.4364 6.34504C16.8031 6.78062 16.9864 7.40423 16.9864 8.21585V8.57779H13.5409C13.5535 9.07918 13.6992 9.48499 13.9781 9.79522C14.2601 10.1023 14.6173 10.2559 15.0498 10.2559C15.3569 10.2559 15.617 10.1932 15.8301 10.0679C16.0432 9.94251 16.2296 9.77642 16.3894 9.5696L16.9206 9.98324C16.4944 10.6382 15.8551 10.9657 15.0028 10.9657ZM14.8947 6.40615C14.5437 6.40615 14.2491 6.53463 14.011 6.79159C13.7728 7.04542 13.6255 7.40266 13.5691 7.86331H16.1168V7.7975C16.0917 7.35565 15.9727 7.01408 15.7596 6.77279C15.5465 6.52836 15.2582 6.40615 14.8947 6.40615ZM20.9583 9.52259C20.9583 9.28757 20.869 9.10581 20.6904 8.97733C20.5149 8.84572 20.2063 8.73291 19.7644 8.6389C19.3257 8.54489 18.9763 8.43207 18.7162 8.30046C18.4592 8.16884 18.2681 8.01216 18.1427 7.83041C18.0205 7.64865 17.9594 7.43243 17.9594 7.18173C17.9594 6.76495 18.1349 6.41242 18.4859 6.12412C18.84 5.83582 19.2912 5.69167 19.8396 5.69167C20.4162 5.69167 20.8831 5.84052 21.2404 6.13822C21.6007 6.43592 21.7809 6.81666 21.7809 7.28045H20.9066C20.9066 7.04229 20.8048 6.83703 20.6011 6.66468C20.4005 6.49232 20.1467 6.40615 19.8396 6.40615C19.5231 6.40615 19.2756 6.47509 19.0969 6.61297C18.9183 6.75085 18.829 6.93104 18.829 7.15353C18.829 7.36349 18.912 7.52174 19.0781 7.62828C19.2442 7.73483 19.5435 7.83667 19.9759 7.93382C20.4115 8.03096 20.7641 8.14691 21.0335 8.28166C21.303 8.4164 21.502 8.57936 21.6305 8.77051C21.7621 8.95853 21.8279 9.18886 21.8279 9.46149C21.8279 9.91587 21.6462 10.2809 21.2827 10.5567C20.9192 10.8293 20.4476 10.9657 19.8678 10.9657C19.4604 10.9657 19.1001 10.8936 18.7867 10.7494C18.4733 10.6053 18.2273 10.4047 18.0487 10.1478C17.8732 9.88767 17.7855 9.6072 17.7855 9.30637H18.6551C18.6708 9.5978 18.7867 9.82969 19.0029 10.002C19.2223 10.1713 19.5106 10.2559 19.8678 10.2559C20.1969 10.2559 20.4601 10.1901 20.6575 10.0585C20.8581 9.9237 20.9583 9.74508 20.9583 9.52259Z" fill="#8794BA"/>
</svg>
